<svg xmlns="http://www.w3.org/2000/svg" xmlns:xlink="http://www.w3.org/1999/xlink" width="500" zoomAndPan="magnify" viewBox="0 0 375 374.999991" height="500" preserveAspectRatio="xMidYMid meet" version="1.0"><path stroke-linecap="round" transform="matrix(0.75, 0, 0, 0.75, 67.481441, 73.241304)" fill="none" stroke-linejoin="miter" d="M 2.998704 37.136597 L 2.998704 224.891818 C 2.998704 271.282446 40.608082 308.891823 86.99871 308.891823 L 233.050802 308.891823 C 279.441431 308.891823 317.050808 271.282446 317.050808 224.891818 L 317.050808 35.615764 C 317.050808 26.964721 313.613308 18.667846 307.493516 12.553262 C 301.378932 6.438678 293.082056 3.001178 284.431014 3.001178 C 275.779972 3.001178 267.483096 6.438678 261.368513 12.553262 C 255.248721 18.667846 251.816429 26.964721 251.816429 35.615764 L 251.816429 48.19389 C 251.816429 73.157433 231.582052 93.391809 206.618509 93.391809 L 111.738295 93.391809 C 86.774751 93.391809 66.540375 73.157433 66.540375 48.19389 L 66.540375 34.772014 C 66.540375 17.225137 52.316416 3.001178 34.769539 3.001178 C 17.222663 3.001178 2.998704 17.225137 2.998704 34.772014 L 2.998704 200.574108 " stroke="#000000" stroke-width="6" stroke-opacity="1" stroke-miterlimit="4"/><path stroke-linecap="round" transform="matrix(0, -0.75, 0.75, 0, 119.795879, 273.029632)" fill="none" stroke-linejoin="miter" d="M 33.997844 34.00133 L 112.81035 34.00133 " stroke="#000000" stroke-width="68" stroke-opacity="1" stroke-miterlimit="4"/><path stroke-linecap="round" transform="matrix(0, -0.75, 0.75, 0, 204.193306, 273.029632)" fill="none" stroke-linejoin="miter" d="M 33.997844 33.997469 L 112.81035 33.997469 " stroke="#000000" stroke-width="68" stroke-opacity="1" stroke-miterlimit="4"/></svg>