<svg xmlns="http://www.w3.org/2000/svg" xmlns:xlink="http://www.w3.org/1999/xlink" width="500" zoomAndPan="magnify" viewBox="0 0 375 374.999991" height="500" preserveAspectRatio="xMidYMid meet" version="1.0"><path stroke-linecap="round" transform="matrix(0.75, 0, 0, 0.75, 69.918941, 73.47847)" fill="none" stroke-linejoin="miter" d="M 3.998704 156.028717 L 3.998704 228.044347 C 3.998704 267.815183 36.243498 300.059977 76.014334 300.059977 L 218.050802 300.059977 C 273.279972 300.059977 318.050808 255.283932 318.050808 200.05997 L 318.050808 32.080793 C 318.050808 16.570375 305.477891 3.997457 289.972681 3.997457 L 287.420598 3.997457 C 280.649764 3.997457 274.154972 6.690166 269.368513 11.476625 C 264.582055 16.263083 261.894555 22.757875 261.894555 29.528709 C 261.894555 36.299543 259.201846 42.794335 254.415387 47.580794 C 249.628929 52.367252 243.134137 55.059961 236.363303 55.059961 L 50.483082 55.059961 C 38.154957 55.059961 26.332039 59.955795 17.613289 68.674545 C 8.899746 77.393296 3.998704 89.216213 3.998704 101.544339 L 3.998704 148.028717 " stroke="#000000" stroke-width="8" stroke-opacity="1" stroke-miterlimit="4"/><path stroke-linecap="round" transform="matrix(0, -0.75, 0.75, 0, 132.337071, 270.369445)" fill="none" stroke-linejoin="miter" d="M 33.997804 33.998491 L 133.414478 33.998491 " stroke="#000000" stroke-width="68" stroke-opacity="1" stroke-miterlimit="4"/><path stroke-linecap="round" transform="matrix(0.000000001309, -0.75, 0.75, 0.000000001309, 60.540661, 240.349907)" fill="none" stroke-linejoin="miter" d="M 20.497794 20.497871 L 94.21134 20.49787 " stroke="#000000" stroke-width="41" stroke-opacity="1" stroke-miterlimit="4"/><path stroke-linecap="round" transform="matrix(0, -0.75, 0.75, 0, 136.835036, 265.269182)" fill="none" stroke-linejoin="miter" d="M 27.999536 28.001204 L 125.999542 28.001204 " stroke="#ffffff" stroke-width="56" stroke-opacity="1" stroke-miterlimit="4"/><path stroke-linecap="round" transform="matrix(0, -0.75, 0.75, 0, 205.040528, 270.369445)" fill="none" stroke-linejoin="miter" d="M 33.997804 33.998048 L 133.414478 33.998048 " stroke="#000000" stroke-width="68" stroke-opacity="1" stroke-miterlimit="4"/><path stroke-linecap="round" transform="matrix(0, -0.75, 0.75, 0, 209.538521, 265.269182)" fill="none" stroke-linejoin="miter" d="M 27.999536 28.000724 L 125.999542 28.000724 " stroke="#ffffff" stroke-width="56" stroke-opacity="1" stroke-miterlimit="4"/></svg>