<?xml version="1.0" standalone="no"?>
<!DOCTYPE svg PUBLIC "-//W3C//DTD SVG 20010904//EN"
 "http://www.w3.org/TR/2001/REC-SVG-20010904/DTD/svg10.dtd">
<svg version="1.0" xmlns="http://www.w3.org/2000/svg"
 width="500.000000pt" height="500.000000pt" viewBox="0 0 500.000000 500.000000"
 preserveAspectRatio="xMidYMid meet">

<g transform="translate(0.000000,500.000000) scale(0.100000,-0.100000)"
fill="#000000" stroke="none">
<path d="M1145 4136 c-162 -40 -296 -180 -325 -339 -7 -36 -10 -417 -7 -1098
3 -1163 -2 -1080 74 -1259 88 -209 235 -368 437 -476 106 -56 178 -81 291 -99
133 -22 1637 -22 1770 0 113 18 185 43 291 99 241 129 407 337 485 611 l23 80
3 1044 c3 731 0 1061 -7 1098 -17 82 -64 164 -128 225 -67 64 -117 92 -205
114 -221 57 -460 -78 -529 -299 -13 -42 -18 -90 -18 -167 0 -173 -20 -239 -99
-323 -51 -54 -118 -86 -209 -98 -48 -6 -259 -9 -557 -7 -472 3 -481 4 -537 26
-68 27 -147 99 -178 162 -20 38 -25 69 -32 205 -9 175 -22 230 -73 310 -100
158 -291 235 -470 191z m180 -245 c47 -22 89 -64 105 -106 7 -16 16 -102 20
-190 6 -127 12 -172 29 -217 63 -163 204 -296 370 -348 60 -19 92 -20 640 -20
634 0 619 -1 746 62 83 42 200 162 242 248 46 97 55 140 62 306 6 145 7 153
35 192 34 50 112 92 170 92 84 -1 173 -68 196 -147 8 -27 10 -337 8 -1063 -4
-1150 1 -1066 -80 -1222 -74 -142 -231 -284 -376 -338 -129 -50 -162 -51
-1034 -48 -912 4 -855 -1 -1018 80 -68 34 -103 60 -176 133 -77 76 -98 104
-137 185 -80 164 -77 116 -77 1257 0 963 1 1010 19 1049 44 96 161 139 256 95z"/>
<path d="M1877 2820 c-104 -18 -199 -91 -246 -190 l-26 -55 0 -480 0 -480 27
-57 c32 -70 96 -133 168 -167 76 -36 202 -37 272 -3 76 37 141 103 174 174
l29 63 3 424 c4 497 0 532 -62 624 -77 115 -204 170 -339 147z"/>
<path d="M2990 2816 c-72 -15 -140 -56 -183 -109 -86 -106 -89 -130 -85 -652
l3 -430 28 -61 c34 -73 91 -131 167 -171 48 -24 66 -28 140 -28 71 0 94 4 140
26 72 34 136 97 168 167 l27 57 3 464 c3 512 3 510 -59 601 -77 112 -214 166
-349 136z"/>
</g>
</svg>
